<svg width="17" height="17" viewBox="0 0 17 17" fill="none" xmlns="http://www.w3.org/2000/svg">
<path d="M1 6.52632H4.62069V10.2105H1V6.52632ZM6.68965 6.52632H10.3103V10.2105H6.68965V6.52632ZM6.68965 12.3158H10.3103V16H6.68965V12.3158ZM1 12.3158H4.62069V16H1V12.3158Z" fill="white"/>
<path d="M12.3793 6.52632H16V10.2105H12.3793V6.52632ZM12.3793 12.3158H16V16H12.3793V12.3158Z" fill="white"/>
<path d="M4.62069 1H1V4.68421H4.62069V1Z" fill="white"/>
<path d="M10.3103 1H6.68965V4.68421H10.3103V1Z" fill="white"/>
<path d="M16 1H12.3793V4.68421H16V1Z" fill="white"/>
<path d="M1 6.52632H4.62069V10.2105H1V6.52632ZM6.68965 6.52632H10.3103V10.2105H6.68965V6.52632ZM6.68965 12.3158H10.3103V16H6.68965V12.3158ZM1 12.3158H4.62069V16H1V12.3158Z" stroke="white" stroke-linecap="round" stroke-linejoin="round"/>
<path d="M12.3793 6.52632H16V10.2105H12.3793V6.52632ZM12.3793 12.3158H16V16H12.3793V12.3158Z" stroke="white" stroke-linecap="round" stroke-linejoin="round"/>
<path d="M4.62069 1H1V4.68421H4.62069V1Z" stroke="white" stroke-linecap="round" stroke-linejoin="round"/>
<path d="M10.3103 1H6.68965V4.68421H10.3103V1Z" stroke="white" stroke-linecap="round" stroke-linejoin="round"/>
<path d="M16 1H12.3793V4.68421H16V1Z" stroke="white" stroke-linecap="round" stroke-linejoin="round"/>
</svg>
