<svg width="12" height="13" viewBox="0 0 12 13" fill="none" xmlns="http://www.w3.org/2000/svg">
<path d="M10.75 1.08333V4.33333H7.5" stroke="white" stroke-linecap="round" stroke-linejoin="round"/>
<path d="M1 6.5C1.00086 5.55929 1.27387 4.63893 1.7861 3.84991C2.29833 3.0609 3.0279 2.43693 3.88682 2.05328C4.74573 1.66964 5.69731 1.54269 6.62676 1.68775C7.55621 1.83281 8.42384 2.24369 9.125 2.87083L10.75 4.33333M1 11.9167V8.66666H4.25" stroke="white" stroke-linecap="round" stroke-linejoin="round"/>
<path d="M10.75 6.49999C10.7491 7.4407 10.4761 8.36106 9.9639 9.15008C9.45167 9.93909 8.7221 10.5631 7.86318 10.9467C7.00427 11.3304 6.05269 11.4573 5.12324 11.3122C4.19379 11.1672 3.32616 10.7563 2.625 10.1292L1 8.66666" stroke="white" stroke-linecap="round" stroke-linejoin="round"/>
</svg>
