<svg width="16" height="17" viewBox="0 0 16 17" fill="none" xmlns="http://www.w3.org/2000/svg">
<path d="M12.6266 11.6069L16 14.9874L14.8855 16.1045L11.5128 12.7232C10.2579 13.7315 8.69706 14.2799 7.08871 14.2777C3.17574 14.2777 0 11.0946 0 7.17252C0 3.25048 3.17574 0.0673828 7.08871 0.0673828C11.0017 0.0673828 14.1774 3.25048 14.1774 7.17252C14.1797 8.7846 13.6325 10.3491 12.6266 11.6069ZM11.0466 11.0211C12.0462 9.9908 12.6044 8.60967 12.6021 7.17252C12.6021 4.11889 10.1345 1.6463 7.08871 1.6463C4.04214 1.6463 1.57527 4.11889 1.57527 7.17252C1.57527 10.2254 4.04214 12.6987 7.08871 12.6987C8.52254 12.701 9.90047 12.1415 10.9284 11.1396L11.0466 11.0211Z" fill="#9497AA"/>
</svg>
