<svg width="12" height="12" viewBox="0 0 12 12" fill="none" xmlns="http://www.w3.org/2000/svg">
<path d="M9.92308 4H5.07692C4.48215 4 4 4.48215 4 5.07692V9.92308C4 10.5178 4.48215 11 5.07692 11H9.92308C10.5178 11 11 10.5178 11 9.92308V5.07692C11 4.48215 10.5178 4 9.92308 4Z" stroke="white" stroke-linecap="round" stroke-linejoin="round"/>
<path d="M2.61538 8H2.07692C1.79131 8 1.51739 7.88654 1.31542 7.68458C1.11346 7.48261 1 7.2087 1 6.92308V2.07692C1 1.79131 1.11346 1.51739 1.31542 1.31542C1.51739 1.11346 1.79131 1 2.07692 1H6.92308C7.2087 1 7.48261 1.11346 7.68458 1.31542C7.88654 1.51739 8 1.79131 8 2.07692V2.61538" stroke="white" stroke-linecap="round" stroke-linejoin="round"/>
</svg>
