<svg width="24" height="18" viewBox="0 0 24 18" fill="none" xmlns="http://www.w3.org/2000/svg">
<path d="M8.35588 14.6682C7.85399 15.4054 7.31554 16.1171 6.74255 16.8005C2.57948 16.6821 1 13.98 1 13.98C1.05917 10.1515 1.98694 6.38643 3.71333 2.96875C5.23086 1.78156 7.07996 1.09555 9.0046 1.00568L9.5687 2.30875" stroke="url(#paint0_linear_192_51)" stroke-linecap="round" stroke-linejoin="round"/>
<path d="M14.4427 2.30307L15.0068 1C16.9333 1.09474 18.7826 1.78674 20.298 2.98C22.0189 6.39518 22.9427 10.1562 23.0001 13.98C23.0001 13.98 21.4206 16.682 17.2575 16.8005C16.6841 16.1116 16.1456 15.3942 15.6442 14.6513M19.2883 13.0154C17.7777 13.9246 16.1327 14.589 14.4145 14.9841C13.6194 15.1407 12.8104 15.2163 12.0001 15.2097C11.1898 15.2163 10.3808 15.1407 9.58575 14.9841C7.86747 14.589 6.22252 13.9246 4.71191 13.0154M8.53088 8.15281C8.25713 8.15945 7.9878 8.22329 7.7402 8.34023C7.49259 8.45717 7.27219 8.62461 7.09316 8.8318C6.91412 9.03899 6.78041 9.28135 6.70062 9.5433C6.62083 9.80524 6.59673 10.081 6.62986 10.3528C6.65266 10.8359 6.85822 11.2923 7.2049 11.6296C7.55158 11.9668 8.01347 12.1597 8.49704 12.1692C8.77229 12.1629 9.04325 12.0996 9.2928 11.9833C9.54236 11.867 9.76508 11.7003 9.94691 11.4935C10.1287 11.2868 10.2657 11.0446 10.3492 10.7822C10.4327 10.5198 10.4608 10.243 10.4319 9.96921C10.3996 9.48357 10.1864 9.02767 9.83452 8.69143C9.48261 8.35519 9.01749 8.16302 8.53088 8.15281ZM5.34371 3.47076C6.8076 2.83201 8.35937 2.41745 9.94678 2.24102C10.6274 2.15164 11.3139 2.11581 12.0001 2.13384C12.6866 2.11954 13.3731 2.15915 14.0534 2.25231C15.6408 2.42873 17.1926 2.8433 18.6565 3.48205L5.34371 3.47076Z" stroke="url(#paint1_linear_192_51)" stroke-linecap="round" stroke-linejoin="round"/>
<path d="M15.4697 8.15283C15.7434 8.15948 16.0127 8.22332 16.2603 8.34025C16.508 8.45719 16.7284 8.62463 16.9074 8.83183C17.0864 9.03902 17.2201 9.28138 17.2999 9.54332C17.3797 9.80527 17.4038 10.081 17.3707 10.3528C17.3479 10.8359 17.1423 11.2924 16.7956 11.6296C16.449 11.9669 15.9871 12.1598 15.5035 12.1692C15.2283 12.163 14.9573 12.0997 14.7077 11.9834C14.4582 11.8671 14.2355 11.7003 14.0536 11.4935C13.8718 11.2868 13.7348 11.0446 13.6514 10.7822C13.5679 10.5199 13.5397 10.243 13.5686 9.96924C13.601 9.4836 13.8141 9.0277 14.166 8.69146C14.5179 8.35522 14.9831 8.16304 15.4697 8.15283Z" stroke="url(#paint2_linear_192_51)" stroke-linecap="round" stroke-linejoin="round"/>
<defs>
<linearGradient id="paint0_linear_192_51" x1="5.28435" y1="1.00568" x2="5.28435" y2="16.8005" gradientUnits="userSpaceOnUse">
<stop stop-color="#F41786"/>
<stop offset="1" stop-color="#A713ED"/>
</linearGradient>
<linearGradient id="paint1_linear_192_51" x1="13.856" y1="1" x2="13.856" y2="16.8005" gradientUnits="userSpaceOnUse">
<stop stop-color="#F41786"/>
<stop offset="1" stop-color="#A713ED"/>
</linearGradient>
<linearGradient id="paint2_linear_192_51" x1="15.4714" y1="8.15283" x2="15.4714" y2="12.1692" gradientUnits="userSpaceOnUse">
<stop stop-color="#F41786"/>
<stop offset="1" stop-color="#A713ED"/>
</linearGradient>
</defs>
</svg>
