<svg width="18" height="18" viewBox="0 0 18 18" fill="none" xmlns="http://www.w3.org/2000/svg">
<path d="M7.39746 9.80534C7.74332 10.2677 8.18458 10.6503 8.6913 10.9271C9.19802 11.204 9.75835 11.3686 10.3343 11.4099C10.9102 11.4511 11.4883 11.368 12.0293 11.1662C12.5703 10.9644 13.0616 10.6486 13.4698 10.2402L15.8859 7.82418C16.6194 7.06473 17.0252 6.04756 17.0161 4.99176C17.0069 3.93596 16.5834 2.926 15.8368 2.17941C15.0902 1.43282 14.0802 1.00933 13.0244 1.00015C11.9686 0.990978 10.9515 1.39685 10.192 2.13036L8.80682 3.50751" stroke="url(#paint0_linear_192_40)" stroke-linecap="round" stroke-linejoin="round"/>
<path d="M10.6187 8.19471C10.2729 7.73233 9.83163 7.34975 9.32491 7.0729C8.81819 6.79606 8.25786 6.63143 7.68192 6.59018C7.10598 6.54894 6.5279 6.63203 5.9869 6.83384C5.4459 7.03565 4.95463 7.35145 4.54641 7.75982L2.13036 10.1759C1.39685 10.9353 0.990978 11.9525 1.00015 13.0083C1.00933 14.0641 1.43282 15.0741 2.17941 15.8206C2.926 16.5672 3.93596 16.9907 4.99176 16.9999C6.04756 17.0091 7.06473 16.6032 7.82418 15.8697L9.20133 14.4925" stroke="url(#paint1_linear_192_40)" stroke-linecap="round" stroke-linejoin="round"/>
<defs>
<linearGradient id="paint0_linear_192_40" x1="12.2068" y1="1" x2="12.2068" y2="11.4202" gradientUnits="userSpaceOnUse">
<stop stop-color="#F41786"/>
<stop offset="1" stop-color="#A713ED"/>
</linearGradient>
<linearGradient id="paint1_linear_192_40" x1="5.80937" y1="6.5799" x2="5.80937" y2="17.0001" gradientUnits="userSpaceOnUse">
<stop stop-color="#F41786"/>
<stop offset="1" stop-color="#A713ED"/>
</linearGradient>
</defs>
</svg>
