<svg width="37" height="37" viewBox="0 0 37 37" fill="none" xmlns="http://www.w3.org/2000/svg">
<path d="M18.7611 27.6722H18.7772M34.403 29.5041L21.5422 3.85737C21.2618 3.29351 20.8552 2.82451 20.3637 2.49822C19.8723 2.17192 19.3138 2 18.745 2C18.1763 2 17.6177 2.17192 17.1263 2.49822C16.6349 2.82451 16.2282 3.29351 15.9478 3.85737L3.08708 29.5041C2.80363 30.0635 2.655 30.6983 2.65626 31.3443C2.65751 31.9902 2.80861 32.6243 3.09423 33.1823C3.37984 33.7402 3.78983 34.2022 4.28264 34.5214C4.77544 34.8406 5.33354 35.0057 5.90036 34.9999H31.6218C32.1859 34.9992 32.74 34.8294 33.2283 34.5076C33.7166 34.1858 34.122 33.7232 34.4038 33.1663C34.6856 32.6095 34.8339 31.9779 34.8337 31.3351C34.8336 30.6923 34.685 30.0608 34.403 29.5041ZM18.7611 13.0169V20.3446V13.0169Z" stroke="white" stroke-width="4" stroke-linecap="round" stroke-linejoin="round"/>
</svg>
