<svg width="18" height="18" viewBox="0 0 18 18" fill="none" xmlns="http://www.w3.org/2000/svg">
<path d="M2.58974 12.5259C1.39744 13.5275 1 16.5003 1 16.5003C1 16.5003 3.97282 16.1029 4.97436 14.9106C5.53872 14.2429 5.53077 13.2175 4.90282 12.5975C4.59386 12.3026 4.18687 12.1322 3.75997 12.119C3.33307 12.1058 2.91634 12.2507 2.58974 12.5259V12.5259Z" stroke="white" stroke-width="1.5" stroke-linecap="round" stroke-linejoin="round"/>
<path d="M8.55112 11.3335L6.1665 8.94892C6.58949 7.85154 7.1221 6.79963 7.75625 5.80917C8.68242 4.32831 9.97205 3.10903 11.5025 2.2673C13.0329 1.42556 14.7532 0.989364 16.4998 1.0002C16.4998 3.16225 15.8798 6.96174 11.7306 9.74379C10.7266 10.3787 9.66143 10.9112 8.55112 11.3335V11.3335Z" stroke="white" stroke-width="1.5" stroke-linecap="round" stroke-linejoin="round"/>
<path d="M8.55136 11.3336V15.3079C8.55136 15.3079 10.9598 14.8708 11.7308 13.7182C12.5893 12.4305 11.7308 9.74384 11.7308 9.74384M6.16674 8.94896H2.19238C2.19238 8.94896 2.62956 6.5405 3.78213 5.76948C5.06982 4.91102 7.75649 5.76948 7.75649 5.76948L6.16674 8.94896Z" stroke="white" stroke-width="1.5" stroke-linecap="round" stroke-linejoin="round"/>
</svg>
