<svg width="14" height="15" viewBox="0 0 14 15" fill="none" xmlns="http://www.w3.org/2000/svg">
<path d="M14 14.1993C14 14.4116 13.9181 14.6153 13.7722 14.7655C13.6263 14.9156 13.4285 15 13.2222 15H0.777778C0.571498 15 0.373668 14.9156 0.227806 14.7655C0.0819444 14.6153 1.87219e-07 14.4116 1.87219e-07 14.1993V5.78349C-8.20428e-05 5.66147 0.0269245 5.54104 0.0789569 5.43141C0.130989 5.32177 0.206671 5.22583 0.300222 5.15091L6.52244 0.168711C6.65898 0.0593662 6.82702 0 7 0C7.17298 0 7.34102 0.0593662 7.47756 0.168711L13.6998 5.15091C13.7933 5.22583 13.869 5.32177 13.921 5.43141C13.9731 5.54104 14.0001 5.66147 14 5.78349V14.1993ZM12.4444 13.3985V6.17425L7 1.81503L1.55556 6.17425V13.3985H12.4444Z" fill="white"/>
</svg>
